<svg width="64" height="64" viewBox="0 0 64 64" fill="none" xmlns="http://www.w3.org/2000/svg">
<g clip-path="url(#clip0_59_67)">
<path d="M32 64C46.0222 64 53.8174 64 58.9087 58.9087C64 53.8174 64 46.0222 64 32C64 17.9778 64 10.1826 58.9087 5.09131C53.8174 -9.53674e-07 46.0222 0 32 0C17.9778 0 10.1826 -9.53674e-07 5.09131 5.09131C-9.53674e-07 10.1826 0 17.9778 0 32C0 46.0222 -9.53674e-07 53.8174 5.09131 58.9087C10.1826 64 17.9778 64 32 64Z" fill="url(#paint0_linear_59_67)"/>
<g opacity="0.4">
<circle cx="14.5" cy="19" r="2.5" fill="#7C3AED" stroke="#E1C9FC" stroke-width="1.6"/>
<line x1="24.8" y1="19.1285" x2="51.2" y2="19.1285" stroke="#E1C9FC" stroke-width="1.6" stroke-linecap="round"/>
<circle cx="14.5" cy="32" r="2.5" fill="#7C3AED" stroke="#E1C9FC" stroke-width="1.6"/>
<line x1="24.8" y1="32.1285" x2="51.2" y2="32.1285" stroke="#E1C9FC" stroke-width="1.6" stroke-linecap="round"/>
<circle cx="14.5" cy="45" r="2.5" fill="#7C3AED" stroke="#E1C9FC" stroke-width="1.6"/>
<line x1="24.8" y1="45.1285" x2="51.2" y2="45.1285" stroke="#E1C9FC" stroke-width="1.6" stroke-linecap="round"/>
</g>
<path d="M13.8905 50.1093C12.6051 48.8227 14.9474 41.2723 17.7603 38.4586L44.4722 11.7467C45.4368 10.7823 47.0003 10.7823 47.9649 11.7467L52.2524 16.0342C53.2171 16.9988 53.2176 18.5628 52.2531 19.5276L25.5412 46.2395C23.2709 48.5089 15.1764 51.3952 13.8905 50.1093Z" fill="#FCFFFE"/>
<path d="M13.8904 50.1094C15.177 51.3949 23.272 48.5085 25.5418 46.2389L52.253 19.5277C53.2176 18.563 53.2176 16.9983 52.253 16.0336L50.1096 13.8902L13.8904 50.1094Z" fill="url(#paint1_linear_59_67)"/>
</g>
<defs>
<linearGradient id="paint0_linear_59_67" x1="32" y1="0" x2="32" y2="64" gradientUnits="userSpaceOnUse">
<stop stop-color="#7C3AED"/>
<stop offset="1" stop-color="#5D2EAC"/>
</linearGradient>
<linearGradient id="paint1_linear_59_67" x1="49.9808" y1="13.8902" x2="13.5767" y2="50.2942" gradientUnits="userSpaceOnUse">
<stop stop-color="#FCF9FF"/>
<stop offset="1" stop-color="#E1C9FC"/>
</linearGradient>
<clipPath id="clip0_59_67">
<rect width="64" height="64" fill="white"/>
</clipPath>
</defs>
</svg>
