<svg width="563" height="82" viewBox="0 0 563 82" fill="none" xmlns="http://www.w3.org/2000/svg">
<path d="M333.697 64.408C328.321 64.408 323.969 62.7547 320.641 59.448C317.334 56.12 315.681 51.9067 315.681 46.808C315.681 41.7094 317.345 37.496 320.673 34.168C324.022 30.8187 328.31 29.144 333.537 29.144C338.508 29.144 342.593 30.7014 345.793 33.816C348.993 36.9307 350.593 40.9414 350.593 45.848V49.304H321.281V43.864H340.193C340.001 42.1787 339.329 40.8027 338.177 39.736C337.025 38.6694 335.5 38.136 333.601 38.136C331.51 38.136 329.804 38.8827 328.481 40.376C327.158 41.8694 326.497 43.96 326.497 46.648C326.497 49.4854 327.254 51.7254 328.769 53.368C330.284 55.0107 332.268 55.832 334.721 55.832C335.852 55.832 336.865 55.6827 337.761 55.384C338.657 55.064 339.468 54.6374 340.193 54.104C340.94 53.5494 341.761 52.696 342.657 51.544L349.697 56.408C348.118 58.52 346.604 60.1094 345.153 61.176C343.702 62.2214 342.081 63.0214 340.289 63.576C338.497 64.1307 336.3 64.408 333.697 64.408Z" fill="#FCF9FF"/>
<path d="M291.791 77.592C289.061 77.592 286.682 77.304 284.655 76.728C282.65 76.152 280.879 75.2987 279.343 74.168C277.829 73.0374 276.634 71.8 275.759 70.456C274.885 69.1334 274.447 68.472 274.447 68.472L283.311 64.088C283.311 64.088 283.567 64.472 284.079 65.24C284.591 66.0294 285.199 66.712 285.903 67.288C286.607 67.864 287.418 68.3014 288.335 68.6C289.274 68.8987 290.33 69.048 291.503 69.048C294.021 69.048 295.941 68.376 297.263 67.032C298.586 65.688 299.247 63.8427 299.247 61.496V58.808H299.119C298.01 60.1094 296.613 61.144 294.927 61.912C293.242 62.68 291.258 63.064 288.975 63.064C284.538 63.064 280.901 61.5387 278.063 58.488C275.226 55.416 273.807 51.3627 273.807 46.328C273.807 41.2507 275.269 37.1227 278.191 33.944C281.135 30.744 284.922 29.144 289.551 29.144C291.685 29.144 293.615 29.5494 295.343 30.36C297.093 31.1707 298.49 32.2694 299.535 33.656H302.255L299.695 36.376V30.136H310.831V60.344C310.831 65.976 309.125 70.2534 305.711 73.176C302.319 76.12 297.679 77.592 291.791 77.592ZM292.271 53.752C294.341 53.752 296.047 53.0587 297.391 51.672C298.735 50.2854 299.407 48.4614 299.407 46.2C299.407 43.96 298.735 42.1574 297.391 40.792C296.047 39.4054 294.341 38.712 292.271 38.712C290.223 38.712 288.517 39.4054 287.151 40.792C285.807 42.1787 285.135 43.992 285.135 46.232C285.135 48.5147 285.807 50.3387 287.151 51.704C288.495 53.0694 290.202 53.752 292.271 53.752Z" fill="#FCF9FF"/>
<path d="M247.071 64.408C242.613 64.408 238.943 62.8187 236.063 59.64C233.183 56.4614 231.743 52.2374 231.743 46.968C231.743 41.7414 233.226 37.464 236.191 34.136C239.178 30.808 242.997 29.144 247.647 29.144C249.589 29.144 251.402 29.528 253.087 30.296C254.794 31.0427 256.127 32.0667 257.087 33.368L257.183 33.336V17.592H268.895V63.416H257.727V58.008L258.783 59.352L257.631 59.448C256.65 60.984 255.231 62.2 253.375 63.096C251.519 63.9707 249.418 64.408 247.071 64.408ZM250.271 54.648C252.341 54.648 254.047 53.912 255.391 52.44C256.757 50.968 257.439 49.112 257.439 46.872C257.439 44.5894 256.757 42.7227 255.391 41.272C254.026 39.8214 252.319 39.096 250.271 39.096C248.202 39.096 246.474 39.8214 245.087 41.272C243.722 42.7014 243.039 44.568 243.039 46.872C243.039 49.1547 243.722 51.0214 245.087 52.472C246.474 53.9227 248.202 54.648 250.271 54.648Z" fill="#FCF9FF"/>
<path d="M212.072 64.408C206.696 64.408 202.344 62.7547 199.016 59.448C195.709 56.12 194.056 51.9067 194.056 46.808C194.056 41.7094 195.72 37.496 199.048 34.168C202.397 30.8187 206.685 29.144 211.912 29.144C216.883 29.144 220.968 30.7014 224.168 33.816C227.368 36.9307 228.968 40.9414 228.968 45.848V49.304H199.656V43.864H218.568C218.376 42.1787 217.704 40.8027 216.552 39.736C215.4 38.6694 213.875 38.136 211.976 38.136C209.885 38.136 208.179 38.8827 206.856 40.376C205.533 41.8694 204.872 43.96 204.872 46.648C204.872 49.4854 205.629 51.7254 207.144 53.368C208.659 55.0107 210.643 55.832 213.096 55.832C214.227 55.832 215.24 55.6827 216.136 55.384C217.032 55.064 217.843 54.6374 218.568 54.104C219.315 53.5494 220.136 52.696 221.032 51.544L228.072 56.408C226.493 58.52 224.979 60.1094 223.528 61.176C222.077 62.2214 220.456 63.0214 218.664 63.576C216.872 64.1307 214.675 64.408 212.072 64.408Z" fill="#FCF9FF"/>
<path d="M177.421 63.416V17.592H189.229V63.416H177.421Z" fill="#FCF9FF"/>
<path d="M131.459 63.448L120.451 30.136H132.259L136.707 46.904L137.347 49.624H137.507L138.211 46.968L143.043 30.136H152.611L157.315 46.904L158.051 49.592H158.179L158.883 46.936L163.331 30.136H174.371L163.203 63.448H153.187L148.067 46.744L147.395 44.216H147.235L146.563 46.744L141.571 63.448H131.459Z" fill="#FCF9FF"/>
<path d="M102.454 64.408C97.1211 64.408 92.7264 62.744 89.2704 59.416C85.8357 56.0667 84.1184 51.864 84.1184 46.808C84.1184 41.688 85.8357 37.464 89.2704 34.136C92.7264 30.808 97.1211 29.144 102.454 29.144C107.766 29.144 112.15 30.8187 115.606 34.168C119.062 37.496 120.79 41.7094 120.79 46.808C120.79 51.864 119.062 56.0667 115.606 59.416C112.172 62.744 107.788 64.408 102.454 64.408ZM102.454 54.296C104.438 54.296 106.102 53.592 107.446 52.184C108.812 50.7547 109.494 48.952 109.494 46.776C109.494 44.5787 108.812 42.776 107.446 41.368C106.102 39.96 104.438 39.256 102.454 39.256C100.47 39.256 98.7957 39.96 97.4304 41.368C96.0864 42.776 95.4144 44.5787 95.4144 46.776C95.4144 48.952 96.0864 50.7547 97.4304 52.184C98.7744 53.592 100.449 54.296 102.454 54.296Z" fill="#FCF9FF"/>
<path d="M45.7334 63.416V30.136H57.1254V36.504L55.9414 34.872H57.2214C58.3094 33.0587 59.8241 31.6507 61.7654 30.648C63.7281 29.6454 65.8081 29.144 68.0054 29.144C71.5894 29.144 74.4374 30.232 76.5494 32.408C78.6614 34.5627 79.7174 37.5494 79.7174 41.368V63.416H67.9094V44.28C67.9094 42.552 67.4827 41.2187 66.6294 40.28C65.7974 39.3414 64.5601 38.872 62.9174 38.872C61.3601 38.872 60.0694 39.4267 59.0454 40.536C58.0427 41.6454 57.5414 43.0854 57.5414 44.856V63.416H45.7334Z" fill="#FCF9FF"/>
<path d="M8.064 55.192L8.032 40.472L27.072 17.592H41.824L21.024 41.272L8.064 55.192ZM0 63.416V17.592H12.544V63.416H0ZM27.872 63.416L14.656 42.68L23.04 33.912L42.496 63.416H27.872Z" fill="#FCF9FF"/>
<rect x="372.786" width="190" height="82" rx="24" fill="#7C3AED"/>
<path d="M524.124 64.408C518.748 64.408 514.396 62.7547 511.068 59.448C507.761 56.12 506.108 51.9067 506.108 46.808C506.108 41.7094 507.772 37.496 511.1 34.168C514.449 30.8187 518.737 29.144 523.964 29.144C528.934 29.144 533.02 30.7014 536.22 33.816C539.42 36.9307 541.02 40.9414 541.02 45.848V49.304H511.708V43.864H530.62C530.428 42.1787 529.756 40.8027 528.604 39.736C527.452 38.6694 525.926 38.136 524.028 38.136C521.937 38.136 520.23 38.8827 518.908 40.376C517.585 41.8694 516.924 43.96 516.924 46.648C516.924 49.4854 517.681 51.7254 519.196 53.368C520.71 55.0107 522.694 55.832 525.148 55.832C526.278 55.832 527.292 55.6827 528.188 55.384C529.084 55.064 529.894 54.6374 530.62 54.104C531.366 53.5494 532.188 52.696 533.084 51.544L540.124 56.408C538.545 58.52 537.03 60.1094 535.58 61.176C534.129 62.2214 532.508 63.0214 530.716 63.576C528.924 64.1307 526.726 64.408 524.124 64.408Z" fill="#FCF9FF"/>
<path d="M488.626 64.408C486.109 64.408 483.954 64.1734 482.162 63.704C480.391 63.2347 478.802 62.5627 477.394 61.688C476.007 60.792 474.834 59.7787 473.874 58.648C472.914 57.5174 472.434 56.952 472.434 56.952L479.186 51.64C479.186 51.64 479.517 52.0134 480.178 52.76C480.861 53.5067 481.607 54.136 482.418 54.648C483.25 55.16 484.167 55.5654 485.17 55.864C486.173 56.1414 487.335 56.28 488.658 56.28C489.981 56.28 491.005 56.0774 491.73 55.672C492.477 55.2454 492.85 54.6374 492.85 53.848C492.85 53.08 492.477 52.4934 491.73 52.088C490.983 51.6827 489.106 51.128 486.098 50.424C481.895 49.4427 478.845 48.0774 476.946 46.328C475.047 44.5787 474.098 42.3707 474.098 39.704C474.098 36.3547 475.442 33.7627 478.13 31.928C480.839 30.072 484.285 29.144 488.466 29.144C490.578 29.144 492.445 29.336 494.066 29.72C495.709 30.104 497.138 30.648 498.354 31.352C499.591 32.0347 500.69 32.8454 501.65 33.784C502.61 34.7014 503.09 35.16 503.09 35.16L496.69 40.728C496.69 40.728 496.402 40.4614 495.826 39.928C495.271 39.3947 494.578 38.904 493.746 38.456C492.935 38.008 492.093 37.688 491.218 37.496C490.343 37.2827 489.458 37.176 488.562 37.176C487.41 37.176 486.493 37.3787 485.81 37.784C485.149 38.168 484.818 38.68 484.818 39.32C484.818 40.0027 485.191 40.5467 485.938 40.952C486.706 41.3574 488.594 41.9014 491.602 42.584C495.869 43.5654 498.951 44.9094 500.85 46.616C502.749 48.3227 503.698 50.5627 503.698 53.336C503.698 56.7494 502.322 59.448 499.57 61.432C496.818 63.416 493.17 64.408 488.626 64.408Z" fill="#FCF9FF"/>
<path d="M446.669 64.408C443.085 64.408 440.183 63.4587 437.965 61.56C435.746 59.64 434.637 57.1014 434.637 53.944C434.637 50.5307 435.959 47.8427 438.605 45.88C441.25 43.896 444.727 42.904 449.037 42.904C450.637 42.904 452.109 43.0427 453.453 43.32C454.818 43.5974 456.077 43.9814 457.229 44.472V42.744C457.229 41.1014 456.663 39.832 455.533 38.936C454.402 38.04 452.887 37.592 450.989 37.592C449.815 37.592 448.781 37.72 447.885 37.976C446.989 38.2107 446.103 38.5734 445.229 39.064C444.354 39.5334 443.554 40.0667 442.829 40.664C442.103 41.2614 441.741 41.56 441.741 41.56L435.661 35.416C435.661 35.416 436.301 34.9254 437.581 33.944C438.882 32.9627 440.269 32.1094 441.741 31.384C443.213 30.6587 444.845 30.104 446.637 29.72C448.45 29.336 450.381 29.144 452.429 29.144C457.549 29.144 461.549 30.296 464.429 32.6C467.309 34.904 468.749 38.2534 468.749 42.648V63.416H457.485V56.888L459.629 59.384H457.357C456.311 60.8987 454.882 62.1147 453.069 63.032C451.277 63.9494 449.143 64.408 446.669 64.408ZM450.637 57.048C452.663 57.048 454.263 56.3654 455.437 55C456.631 53.6347 457.229 51.864 457.229 49.688V49.56C456.546 49.1974 455.714 48.8987 454.733 48.664C453.751 48.408 452.663 48.28 451.469 48.28C449.762 48.28 448.343 48.664 447.213 49.432C446.103 50.2 445.549 51.3414 445.549 52.856C445.549 54.2214 446.018 55.2667 446.957 55.992C447.895 56.696 449.122 57.048 450.637 57.048Z" fill="#FCF9FF"/>
<path d="M394.552 63.416V17.592H416.536C420.568 17.592 423.832 18.712 426.328 20.952C428.845 23.1707 430.104 25.9867 430.104 29.4C430.104 31.96 429.485 34.104 428.248 35.832C427.032 37.56 425.4 38.84 423.352 39.672V39.768C425.912 40.4507 427.949 41.752 429.464 43.672C430.978 45.5707 431.736 47.8747 431.736 50.584C431.736 54.1467 430.445 57.176 427.864 59.672C425.304 62.168 421.912 63.416 417.688 63.416H394.552ZM407.096 54.04H414.008C415.501 54.04 416.749 53.5814 417.752 52.664C418.776 51.7467 419.288 50.552 419.288 49.08C419.288 47.5867 418.765 46.4027 417.72 45.528C416.674 44.632 415.384 44.184 413.848 44.184H404.504V36.44H413.144C414.637 36.44 415.842 36.0027 416.76 35.128C417.677 34.232 418.136 33.1227 418.136 31.8C418.136 30.456 417.677 29.3574 416.76 28.504C415.842 27.6294 414.648 27.192 413.176 27.192H407.096V54.04Z" fill="#FCF9FF"/>
</svg>
